<svg width="1600" height="900" viewBox="0 0 1600 900" fill="none" xmlns="http://www.w3.org/2000/svg">
  <rect width="1600" height="900" fill="#1e3a0f"/>
  <path d="M0 180C220 130 340 240 540 210C750 180 830 70 1040 100C1220 125 1390 225 1600 180V900H0V180Z" fill="#2d5016" opacity="0.5"/>
  <path d="M0 390C170 360 310 455 500 430C670 410 770 315 950 335C1160 360 1300 470 1600 455V900H0V390Z" fill="#6f923c" opacity="0.35"/>
  <path d="M0 540C210 520 340 600 550 580C760 560 890 470 1100 500C1270 524 1410 600 1600 590V900H0V540Z" fill="#d4a017" opacity="0.25"/>
</svg>
