<svg width="1200" height="800" viewBox="0 0 1200 800" fill="none" xmlns="http://www.w3.org/2000/svg">
  <rect width="1200" height="800" fill="#f1eee6"/>
  <rect x="180" y="130" width="840" height="540" rx="28" fill="#212121"/>
  <rect x="220" y="175" width="760" height="450" rx="16" fill="#101010"/>
  <rect x="240" y="195" width="720" height="410" rx="12" fill="#223220"/>
  <path d="M240 335C300 290 380 260 470 280C560 300 600 360 700 360C790 360 860 315 960 255V605H240V335Z" fill="#7cae3f"/>
  <path d="M240 400C330 355 410 340 510 360C620 382 700 465 800 455C860 448 905 420 960 390V605H240V400Z" fill="#d4a017"/>
  <path d="M240 470C310 450 395 450 490 468C570 485 645 540 740 542C815 544 890 515 960 480V605H240V470Z" fill="#b33a2e"/>
  <rect x="510" y="645" width="180" height="24" rx="12" fill="#2d2d2d"/>
</svg>
